<?xml version="1.0" encoding="UTF-8" standalone="no"?>
<!-- Created with Inkscape (http://www.inkscape.org/) -->

<svg
   xmlns:dc="http://purl.org/dc/elements/1.1/"
   xmlns:cc="http://creativecommons.org/ns#"
   xmlns:rdf="http://www.w3.org/1999/02/22-rdf-syntax-ns#"
   xmlns:svg="http://www.w3.org/2000/svg"
   xmlns="http://www.w3.org/2000/svg"
   xmlns:sodipodi="http://sodipodi.sourceforge.net/DTD/sodipodi-0.dtd"
   xmlns:inkscape="http://www.inkscape.org/namespaces/inkscape"
   width="210mm"
   height="297mm"
   viewBox="0 0 210 297"
   version="1.1"
   id="svg8"
   inkscape:version="0.92+devel unknown"
   sodipodi:docname="illustrations.svg">
  <defs
     id="defs2">
    <marker
       inkscape:stockid="TriangleOutM"
       orient="auto"
       refY="0.0"
       refX="0.0"
       id="marker7559"
       style="overflow:visible"
       inkscape:isstock="true">
      <path
         id="path7557"
         d="M 5.77,0.0 L -2.88,5.0 L -2.88,-5.0 L 5.77,0.0 z "
         style="fill-rule:evenodd;stroke:#000000;stroke-width:1pt;stroke-opacity:1;fill:#000000;fill-opacity:1"
         transform="scale(0.4)" />
    </marker>
    <marker
       inkscape:isstock="true"
       style="overflow:visible"
       id="marker7549"
       refX="0.0"
       refY="0.0"
       orient="auto"
       inkscape:stockid="TriangleOutM">
      <path
         transform="scale(0.4)"
         style="fill-rule:evenodd;stroke:#000000;stroke-width:1pt;stroke-opacity:1;fill:#000000;fill-opacity:1"
         d="M 5.77,0.0 L -2.88,5.0 L -2.88,-5.0 L 5.77,0.0 z "
         id="path7547" />
    </marker>
    <marker
       inkscape:stockid="TriangleOutM"
       orient="auto"
       refY="0.0"
       refX="0.0"
       id="marker7486"
       style="overflow:visible"
       inkscape:isstock="true">
      <path
         id="path7484"
         d="M 5.77,0.0 L -2.88,5.0 L -2.88,-5.0 L 5.77,0.0 z "
         style="fill-rule:evenodd;stroke:#000000;stroke-width:1pt;stroke-opacity:1;fill:#000000;fill-opacity:1"
         transform="scale(0.4)" />
    </marker>
    <marker
       inkscape:isstock="true"
       style="overflow:visible"
       id="marker6704"
       refX="0.0"
       refY="0.0"
       orient="auto"
       inkscape:stockid="TriangleOutM">
      <path
         transform="scale(0.4)"
         style="fill-rule:evenodd;stroke:#000000;stroke-width:1pt;stroke-opacity:1;fill:#000000;fill-opacity:1"
         d="M 5.77,0.0 L -2.88,5.0 L -2.88,-5.0 L 5.77,0.0 z "
         id="path6702" />
    </marker>
    <marker
       inkscape:isstock="true"
       style="overflow:visible"
       id="marker4810"
       refX="0.0"
       refY="0.0"
       orient="auto"
       inkscape:stockid="TriangleOutM"
       inkscape:collect="always">
      <path
         transform="scale(0.4)"
         style="fill-rule:evenodd;stroke:#000000;stroke-width:1pt;stroke-opacity:1;fill:#000000;fill-opacity:1"
         d="M 5.77,0.0 L -2.88,5.0 L -2.88,-5.0 L 5.77,0.0 z "
         id="path4808" />
    </marker>
    <marker
       inkscape:stockid="TriangleOutM"
       orient="auto"
       refY="0.0"
       refX="0.0"
       id="TriangleOutM"
       style="overflow:visible"
       inkscape:isstock="true"
       inkscape:collect="always">
      <path
         id="path4437"
         d="M 5.77,0.0 L -2.88,5.0 L -2.88,-5.0 L 5.77,0.0 z "
         style="fill-rule:evenodd;stroke:#000000;stroke-width:1pt;stroke-opacity:1;fill:#000000;fill-opacity:1"
         transform="scale(0.4)" />
    </marker>
    <marker
       inkscape:stockid="Arrow2Lend"
       orient="auto"
       refY="0.0"
       refX="0.0"
       id="marker4576"
       style="overflow:visible;"
       inkscape:isstock="true">
      <path
         id="path4574"
         style="fill-rule:evenodd;stroke-width:0.625;stroke-linejoin:round;stroke:#000000;stroke-opacity:1;fill:#000000;fill-opacity:1"
         d="M 8.7185878,4.0337352 L -2.2072895,0.016013256 L 8.7185884,-4.0017078 C 6.9730900,-1.6296469 6.9831476,1.6157441 8.7185878,4.0337352 z "
         transform="scale(1.1) rotate(180) translate(1,0)" />
    </marker>
    <marker
       inkscape:stockid="Arrow2Lend"
       orient="auto"
       refY="0.0"
       refX="0.0"
       id="Arrow2Lend"
       style="overflow:visible;"
       inkscape:isstock="true">
      <path
         id="path4313"
         style="fill-rule:evenodd;stroke-width:0.625;stroke-linejoin:round;stroke:#000000;stroke-opacity:1;fill:#000000;fill-opacity:1"
         d="M 8.7185878,4.0337352 L -2.2072895,0.016013256 L 8.7185884,-4.0017078 C 6.9730900,-1.6296469 6.9831476,1.6157441 8.7185878,4.0337352 z "
         transform="scale(1.1) rotate(180) translate(1,0)" />
    </marker>
  </defs>
  <sodipodi:namedview
     id="base"
     pagecolor="#ffffff"
     bordercolor="#666666"
     borderopacity="1.0"
     inkscape:pageopacity="0.0"
     inkscape:pageshadow="2"
     inkscape:zoom="1.4"
     inkscape:cx="28.789309"
     inkscape:cy="670.02914"
     inkscape:document-units="mm"
     inkscape:current-layer="layer1"
     inkscape:document-rotation="0"
     showgrid="false"
     inkscape:window-width="2556"
     inkscape:window-height="1396"
     inkscape:window-x="1366"
     inkscape:window-y="18"
     inkscape:window-maximized="0" />
  <metadata
     id="metadata5">
    <rdf:RDF>
      <cc:Work
         rdf:about="">
        <dc:format>image/svg+xml</dc:format>
        <dc:type
           rdf:resource="http://purl.org/dc/dcmitype/StillImage" />
        <dc:title></dc:title>
      </cc:Work>
    </rdf:RDF>
  </metadata>
  <g
     inkscape:label="Layer 1"
     inkscape:groupmode="layer"
     id="layer1">
    <g
       id="g7396"
       transform="translate(0.07142421,-25.490808)">
      <rect
         ry="1"
         rx="1"
         y="63.841488"
         x="77.469521"
         height="28.100176"
         width="35.089695"
         id="rect4286"
         style="fill:none;stroke:#000000;stroke-width:0.5;stroke-miterlimit:4;stroke-dasharray:none" />
      <path
         inkscape:connector-curvature="0"
         id="path4290"
         d="m 61.697319,77.891576 h 14.29423"
         style="fill:none;fill-rule:evenodd;stroke:#000000;stroke-width:0.5;stroke-linecap:butt;stroke-linejoin:miter;stroke-miterlimit:4;stroke-dasharray:none;stroke-opacity:1;marker-end:url(#TriangleOutM)" />
      <path
         style="fill:none;fill-rule:evenodd;stroke:#000000;stroke-width:0.5;stroke-linecap:butt;stroke-linejoin:miter;stroke-miterlimit:4;stroke-dasharray:none;stroke-opacity:1;marker-end:url(#marker4810)"
         d="m 112.50284,77.891576 h 14.29422"
         id="path4806"
         inkscape:connector-curvature="0" />
      <text
         id="text6676"
         y="79.10218"
         x="48.153252"
         style="font-style:normal;font-variant:normal;font-weight:normal;font-stretch:normal;font-size:4.93888903px;line-height:125%;font-family:'Abyssinica SIL';-inkscape-font-specification:'Abyssinica SIL, Normal';font-variant-ligatures:normal;font-variant-caps:normal;font-variant-numeric:normal;font-feature-settings:normal;text-align:start;letter-spacing:0px;word-spacing:0px;writing-mode:lr-tb;text-anchor:start;fill:#000000;fill-opacity:1;stroke:none;stroke-width:0.26458332px;stroke-linecap:butt;stroke-linejoin:miter;stroke-opacity:1"
         xml:space="preserve"><tspan
           style="font-style:normal;font-variant:normal;font-weight:normal;font-stretch:normal;font-size:4.93888903px;font-family:'Abyssinica SIL';-inkscape-font-specification:'Abyssinica SIL, Normal';font-variant-ligatures:normal;font-variant-caps:normal;font-variant-numeric:normal;font-feature-settings:normal;text-align:start;writing-mode:lr-tb;text-anchor:start;stroke-width:0.26458332px"
           y="79.10218"
           x="48.153252"
           id="tspan6674"
           sodipodi:role="line">input</tspan></text>
      <text
         xml:space="preserve"
         style="font-style:normal;font-variant:normal;font-weight:normal;font-stretch:normal;font-size:4.93888903px;line-height:125%;font-family:'Abyssinica SIL';-inkscape-font-specification:'Abyssinica SIL, Normal';font-variant-ligatures:normal;font-variant-caps:normal;font-variant-numeric:normal;font-feature-settings:normal;text-align:start;letter-spacing:0px;word-spacing:0px;writing-mode:lr-tb;text-anchor:start;fill:#000000;fill-opacity:1;stroke:none;stroke-width:0.26458332px;stroke-linecap:butt;stroke-linejoin:miter;stroke-opacity:1"
         x="129.66261"
         y="78.842941"
         id="text6680"><tspan
           sodipodi:role="line"
           id="tspan6678"
           x="129.66261"
           y="78.842941"
           style="font-style:normal;font-variant:normal;font-weight:normal;font-stretch:normal;font-size:4.93888903px;font-family:'Abyssinica SIL';-inkscape-font-specification:'Abyssinica SIL, Normal';font-variant-ligatures:normal;font-variant-caps:normal;font-variant-numeric:normal;font-feature-settings:normal;text-align:start;writing-mode:lr-tb;text-anchor:start;stroke-width:0.26458332px">output</tspan></text>
      <text
         xml:space="preserve"
         style="font-style:normal;font-variant:normal;font-weight:normal;font-stretch:normal;font-size:4.93888903px;line-height:125%;font-family:'Abyssinica SIL';-inkscape-font-specification:'Abyssinica SIL, Normal';font-variant-ligatures:normal;font-variant-caps:normal;font-variant-numeric:normal;font-feature-settings:normal;text-align:start;letter-spacing:0px;word-spacing:0px;writing-mode:lr-tb;text-anchor:start;fill:#000000;fill-opacity:1;stroke:none;stroke-width:0.26458332px;stroke-linecap:butt;stroke-linejoin:miter;stroke-opacity:1"
         x="85.322281"
         y="72.904106"
         id="text7072"><tspan
           sodipodi:role="line"
           id="tspan7070"
           x="85.322281"
           y="72.904106"
           style="font-style:normal;font-variant:normal;font-weight:normal;font-stretch:normal;font-size:4.93888903px;font-family:'Abyssinica SIL';-inkscape-font-specification:'Abyssinica SIL, Normal';font-variant-ligatures:normal;font-variant-caps:normal;font-variant-numeric:normal;font-feature-settings:normal;text-align:start;writing-mode:lr-tb;text-anchor:start;stroke-width:0.26458332px">compiler</tspan></text>
      <g
         transform="translate(0.40665236,-0.88893613)"
         id="g7112">
        <g
           id="g7102">
          <g
             id="g7086">
            <path
               sodipodi:type="star"
               style="fill:#c9e8ff;fill-opacity:1;stroke:#6f83bf;stroke-width:0.40000001;stroke-miterlimit:4;stroke-dasharray:none;stroke-opacity:1"
               id="path7074"
               sodipodi:sides="8"
               sodipodi:cx="90.696007"
               sodipodi:cy="83.266495"
               sodipodi:r1="5.6067376"
               sodipodi:r2="3.2519081"
               sodipodi:arg1="1.4218365"
               sodipodi:arg2="1.8145356"
               inkscape:flatsided="false"
               inkscape:rounded="0.5"
               inkscape:randomized="0"
               d="m 91.5281,88.811143 c -1.426332,0.214052 -0.217213,-2.040783 -1.616886,-2.388859 -1.399674,-0.348076 -1.38756,2.21046 -2.547487,1.353248 -1.159927,-0.857212 1.289459,-1.596644 0.545867,-2.83249 -0.743591,-1.235845 -2.544184,0.581879 -2.758236,-0.844454 -0.214051,-1.426332 2.040784,-0.217213 2.388859,-1.616886 0.348076,-1.399674 -2.21046,-1.38756 -1.353248,-2.547487 0.857212,-1.159927 1.596645,1.289459 2.83249,0.545867 1.235845,-0.743591 -0.581878,-2.544184 0.844454,-2.758236 1.426333,-0.214052 0.217213,2.040784 1.616887,2.388859 1.399673,0.348076 1.38756,-2.21046 2.547486,-1.353248 1.159927,0.857212 -1.289459,1.596645 -0.545867,2.83249 0.743592,1.235845 2.544185,-0.581878 2.758236,0.844454 0.214052,1.426333 -2.040783,0.217213 -2.388859,1.616887 -0.348076,1.399673 2.21046,1.38756 1.353248,2.547486 -0.857212,1.159927 -1.596644,-1.289459 -2.83249,-0.545867 -1.235845,0.743592 0.581879,2.544185 -0.844454,2.758236 z"
               inkscape:transform-center-x="-0.25713022"
               inkscape:transform-center-y="0.28491941" />
          </g>
          <circle
             r="0.71174699"
             cy="83.266495"
             cx="90.696007"
             id="path7078"
             style="fill:#22577e;fill-opacity:1;stroke:none;stroke-width:0.40000001;stroke-miterlimit:4;stroke-dasharray:none;stroke-opacity:1" />
        </g>
        <g
           id="g7097">
          <g
             id="g7083">
            <path
               inkscape:transform-center-y="0.25340553"
               inkscape:transform-center-x="-0.094631167"
               d="M 98.926874,85.737791 C 98.00646,85.875919 98.786707,84.42087 97.883495,84.196257 96.980283,83.971643 96.9881,85.62267 96.239598,85.06951 c -0.748503,-0.55316 0.83209,-1.030318 0.352249,-1.82781 -0.479841,-0.797493 -1.641767,0.375486 -1.779895,-0.544928 -0.138128,-0.920415 1.316921,-0.140168 1.541535,-1.04338 0.224614,-0.903211 -1.426413,-0.895394 -0.873253,-1.643897 0.55316,-0.748503 1.030317,0.83209 1.82781,0.352249 0.797493,-0.479841 -0.375487,-1.641766 0.544928,-1.779894 0.920414,-0.138128 0.140168,1.316921 1.043379,1.541535 0.903212,0.224613 0.895395,-1.426414 1.643899,-0.873254 0.7485,0.553161 -0.832091,1.030318 -0.35225,1.827811 0.47984,0.797493 1.64177,-0.375487 1.77989,0.544927 0.13813,0.920415 -1.31692,0.140168 -1.54153,1.04338 -0.22461,0.903211 1.42641,0.895394 0.87325,1.643897 -0.55316,0.748503 -1.03031,-0.83209 -1.827808,-0.352249 -0.797493,0.479841 0.375487,1.641766 -0.544928,1.779894 z"
               inkscape:randomized="0"
               inkscape:rounded="0.5"
               inkscape:flatsided="false"
               sodipodi:arg2="1.8145356"
               sodipodi:arg1="1.4218365"
               sodipodi:r2="2.0984616"
               sodipodi:r1="3.618037"
               sodipodi:cy="82.159821"
               sodipodi:cx="98.389923"
               sodipodi:sides="8"
               id="path7076"
               style="fill:#c9e8ff;fill-opacity:1;stroke:#0e69c4;stroke-width:0.36621967;stroke-miterlimit:4;stroke-dasharray:none;stroke-opacity:1"
               sodipodi:type="star"
               transform="matrix(1.0156291,0.40185455,-0.40185455,1.0156291,33.295456,-41.170628)" />
          </g>
          <circle
             style="fill:#22577e;fill-opacity:1;stroke:none;stroke-width:0.40000001;stroke-miterlimit:4;stroke-dasharray:none;stroke-opacity:1"
             id="circle7080"
             cx="100.20683"
             cy="81.811714"
             r="0.43269137" />
        </g>
      </g>
    </g>
    <g
       id="g7681"
       transform="translate(0,-0.79749775)">
      <g
         transform="translate(0,-0.24921417)"
         id="g7583">
        <rect
           ry="1"
           rx="1"
           y="121.48816"
           x="46.689098"
           height="28.100176"
           width="35.089695"
           id="rect7398"
           style="fill:none;stroke:#000000;stroke-width:0.5;stroke-miterlimit:4;stroke-dasharray:none" />
        <path
           inkscape:connector-curvature="0"
           id="path7400"
           d="m 30.916898,135.53825 h 14.29423"
           style="fill:none;fill-rule:evenodd;stroke:#000000;stroke-width:0.5;stroke-linecap:butt;stroke-linejoin:miter;stroke-miterlimit:4;stroke-dasharray:none;stroke-opacity:1;marker-end:url(#marker7549)" />
        <path
           style="fill:none;fill-rule:evenodd;stroke:#000000;stroke-width:0.5;stroke-linecap:butt;stroke-linejoin:miter;stroke-miterlimit:4;stroke-dasharray:none;stroke-opacity:1;marker-end:url(#marker7559)"
           d="m 81.722419,135.53825 h 14.29422"
           id="path7402"
           inkscape:connector-curvature="0" />
        <text
           id="text7406"
           y="136.74886"
           x="17.372831"
           style="font-style:normal;font-variant:normal;font-weight:normal;font-stretch:normal;font-size:4.93888903px;line-height:125%;font-family:'Abyssinica SIL';-inkscape-font-specification:'Abyssinica SIL, Normal';font-variant-ligatures:normal;font-variant-caps:normal;font-variant-numeric:normal;font-feature-settings:normal;text-align:start;letter-spacing:0px;word-spacing:0px;writing-mode:lr-tb;text-anchor:start;fill:#000000;fill-opacity:1;stroke:none;stroke-width:0.26458332px;stroke-linecap:butt;stroke-linejoin:miter;stroke-opacity:1"
           xml:space="preserve"><tspan
             style="font-style:normal;font-variant:normal;font-weight:normal;font-stretch:normal;font-size:4.93888903px;font-family:'Abyssinica SIL';-inkscape-font-specification:'Abyssinica SIL, Normal';font-variant-ligatures:normal;font-variant-caps:normal;font-variant-numeric:normal;font-feature-settings:normal;text-align:start;writing-mode:lr-tb;text-anchor:start;stroke-width:0.26458332px"
             y="136.74886"
             x="17.372831"
             id="tspan7404"
             sodipodi:role="line">input</tspan></text>
        <text
           xml:space="preserve"
           style="font-style:normal;font-variant:normal;font-weight:normal;font-stretch:normal;font-size:4.93888903px;line-height:125%;font-family:'Abyssinica SIL';-inkscape-font-specification:'Abyssinica SIL, Normal';font-variant-ligatures:normal;font-variant-caps:normal;font-variant-numeric:normal;font-feature-settings:normal;text-align:start;letter-spacing:0px;word-spacing:0px;writing-mode:lr-tb;text-anchor:start;fill:#000000;fill-opacity:1;stroke:none;stroke-width:0.26458332px;stroke-linecap:butt;stroke-linejoin:miter;stroke-opacity:1"
           x="54.541859"
           y="130.55078"
           id="text7414"><tspan
             sodipodi:role="line"
             id="tspan7412"
             x="54.541859"
             y="130.55078"
             style="font-style:normal;font-variant:normal;font-weight:normal;font-stretch:normal;font-size:4.93888903px;font-family:'Abyssinica SIL';-inkscape-font-specification:'Abyssinica SIL, Normal';font-variant-ligatures:normal;font-variant-caps:normal;font-variant-numeric:normal;font-feature-settings:normal;text-align:start;writing-mode:lr-tb;text-anchor:start;stroke-width:0.26458332px">compiler</tspan></text>
        <g
           transform="translate(-30.373769,56.757739)"
           id="g7432">
          <g
             id="g7422">
            <g
               id="g7418">
              <path
                 sodipodi:type="star"
                 style="fill:#c9e8ff;fill-opacity:1;stroke:#6f83bf;stroke-width:0.40000001;stroke-miterlimit:4;stroke-dasharray:none;stroke-opacity:1"
                 id="path7416"
                 sodipodi:sides="8"
                 sodipodi:cx="90.696007"
                 sodipodi:cy="83.266495"
                 sodipodi:r1="5.6067376"
                 sodipodi:r2="3.2519081"
                 sodipodi:arg1="1.4218365"
                 sodipodi:arg2="1.8145356"
                 inkscape:flatsided="false"
                 inkscape:rounded="0.5"
                 inkscape:randomized="0"
                 d="m 91.5281,88.811143 c -1.426332,0.214052 -0.217213,-2.040783 -1.616886,-2.388859 -1.399674,-0.348076 -1.38756,2.21046 -2.547487,1.353248 -1.159927,-0.857212 1.289459,-1.596644 0.545867,-2.83249 -0.743591,-1.235845 -2.544184,0.581879 -2.758236,-0.844454 -0.214051,-1.426332 2.040784,-0.217213 2.388859,-1.616886 0.348076,-1.399674 -2.21046,-1.38756 -1.353248,-2.547487 0.857212,-1.159927 1.596645,1.289459 2.83249,0.545867 1.235845,-0.743591 -0.581878,-2.544184 0.844454,-2.758236 1.426333,-0.214052 0.217213,2.040784 1.616887,2.388859 1.399673,0.348076 1.38756,-2.21046 2.547486,-1.353248 1.159927,0.857212 -1.289459,1.596645 -0.545867,2.83249 0.743592,1.235845 2.544185,-0.581878 2.758236,0.844454 0.214052,1.426333 -2.040783,0.217213 -2.388859,1.616887 -0.348076,1.399673 2.21046,1.38756 1.353248,2.547486 -0.857212,1.159927 -1.596644,-1.289459 -2.83249,-0.545867 -1.235845,0.743592 0.581879,2.544185 -0.844454,2.758236 z"
                 inkscape:transform-center-x="-0.25713022"
                 inkscape:transform-center-y="0.28491941" />
            </g>
            <circle
               r="0.71174699"
               cy="83.266495"
               cx="90.696007"
               id="circle7420"
               style="fill:#22577e;fill-opacity:1;stroke:none;stroke-width:0.40000001;stroke-miterlimit:4;stroke-dasharray:none;stroke-opacity:1" />
          </g>
          <g
             id="g7430">
            <g
               id="g7426">
              <path
                 inkscape:transform-center-y="0.25340553"
                 inkscape:transform-center-x="-0.094631167"
                 d="M 98.926874,85.737791 C 98.00646,85.875919 98.786707,84.42087 97.883495,84.196257 96.980283,83.971643 96.9881,85.62267 96.239598,85.06951 c -0.748503,-0.55316 0.83209,-1.030318 0.352249,-1.82781 -0.479841,-0.797493 -1.641767,0.375486 -1.779895,-0.544928 -0.138128,-0.920415 1.316921,-0.140168 1.541535,-1.04338 0.224614,-0.903211 -1.426413,-0.895394 -0.873253,-1.643897 0.55316,-0.748503 1.030317,0.83209 1.82781,0.352249 0.797493,-0.479841 -0.375487,-1.641766 0.544928,-1.779894 0.920414,-0.138128 0.140168,1.316921 1.043379,1.541535 0.903212,0.224613 0.895395,-1.426414 1.643899,-0.873254 0.7485,0.553161 -0.832091,1.030318 -0.35225,1.827811 0.47984,0.797493 1.64177,-0.375487 1.77989,0.544927 0.13813,0.920415 -1.31692,0.140168 -1.54153,1.04338 -0.22461,0.903211 1.42641,0.895394 0.87325,1.643897 -0.55316,0.748503 -1.03031,-0.83209 -1.827808,-0.352249 -0.797493,0.479841 0.375487,1.641766 -0.544928,1.779894 z"
                 inkscape:randomized="0"
                 inkscape:rounded="0.5"
                 inkscape:flatsided="false"
                 sodipodi:arg2="1.8145356"
                 sodipodi:arg1="1.4218365"
                 sodipodi:r2="2.0984616"
                 sodipodi:r1="3.618037"
                 sodipodi:cy="82.159821"
                 sodipodi:cx="98.389923"
                 sodipodi:sides="8"
                 id="path7424"
                 style="fill:#c9e8ff;fill-opacity:1;stroke:#0e69c4;stroke-width:0.36621967;stroke-miterlimit:4;stroke-dasharray:none;stroke-opacity:1"
                 sodipodi:type="star"
                 transform="matrix(1.0156291,0.40185455,-0.40185455,1.0156291,33.295456,-41.170628)" />
            </g>
            <circle
               style="fill:#22577e;fill-opacity:1;stroke:none;stroke-width:0.40000001;stroke-miterlimit:4;stroke-dasharray:none;stroke-opacity:1"
               id="circle7428"
               cx="100.20683"
               cy="81.811714"
               r="0.43269137" />
          </g>
        </g>
      </g>
      <g
         transform="translate(0,0.24921417)"
         id="g7509">
        <rect
           style="fill:none;stroke:#000000;stroke-width:0.5;stroke-miterlimit:4;stroke-dasharray:none"
           id="rect7454"
           width="35.089695"
           height="28.100176"
           x="97.414497"
           y="120.98973"
           rx="1"
           ry="1" />
        <path
           inkscape:connector-curvature="0"
           id="path7456"
           d="m 132.44782,135.03982 h 14.29422"
           style="fill:none;fill-rule:evenodd;stroke:#000000;stroke-width:0.5;stroke-linecap:butt;stroke-linejoin:miter;stroke-miterlimit:4;stroke-dasharray:none;stroke-opacity:1;marker-end:url(#marker7486)" />
        <text
           id="text7460"
           y="135.99118"
           x="149.60759"
           style="font-style:normal;font-variant:normal;font-weight:normal;font-stretch:normal;font-size:4.93888903px;line-height:125%;font-family:'Abyssinica SIL';-inkscape-font-specification:'Abyssinica SIL, Normal';font-variant-ligatures:normal;font-variant-caps:normal;font-variant-numeric:normal;font-feature-settings:normal;text-align:start;letter-spacing:0px;word-spacing:0px;writing-mode:lr-tb;text-anchor:start;fill:#000000;fill-opacity:1;stroke:none;stroke-width:0.26458332px;stroke-linecap:butt;stroke-linejoin:miter;stroke-opacity:1"
           xml:space="preserve"><tspan
             style="font-style:normal;font-variant:normal;font-weight:normal;font-stretch:normal;font-size:4.93888903px;font-family:'Abyssinica SIL';-inkscape-font-specification:'Abyssinica SIL, Normal';font-variant-ligatures:normal;font-variant-caps:normal;font-variant-numeric:normal;font-feature-settings:normal;text-align:start;writing-mode:lr-tb;text-anchor:start;stroke-width:0.26458332px"
             y="135.99118"
             x="149.60759"
             id="tspan7458"
             sodipodi:role="line">output</tspan></text>
        <text
           id="text7464"
           y="130.05235"
           x="105.26726"
           style="font-style:normal;font-variant:normal;font-weight:normal;font-stretch:normal;font-size:4.93888903px;line-height:125%;font-family:'Abyssinica SIL';-inkscape-font-specification:'Abyssinica SIL, Normal';font-variant-ligatures:normal;font-variant-caps:normal;font-variant-numeric:normal;font-feature-settings:normal;text-align:start;letter-spacing:0px;word-spacing:0px;writing-mode:lr-tb;text-anchor:start;fill:#000000;fill-opacity:1;stroke:none;stroke-width:0.26458332px;stroke-linecap:butt;stroke-linejoin:miter;stroke-opacity:1"
           xml:space="preserve"><tspan
             style="font-style:normal;font-variant:normal;font-weight:normal;font-stretch:normal;font-size:4.93888903px;font-family:'Abyssinica SIL';-inkscape-font-specification:'Abyssinica SIL, Normal';font-variant-ligatures:normal;font-variant-caps:normal;font-variant-numeric:normal;font-feature-settings:normal;text-align:start;writing-mode:lr-tb;text-anchor:start;stroke-width:0.26458332px"
             y="130.05235"
             x="105.26726"
             id="tspan7462"
             sodipodi:role="line">compiler</tspan></text>
        <g
           id="g7482"
           transform="translate(20.351633,56.259315)">
          <g
             id="g7472">
            <g
               id="g7468">
              <path
                 inkscape:transform-center-y="0.28491941"
                 inkscape:transform-center-x="-0.25713022"
                 d="m 91.5281,88.811143 c -1.426332,0.214052 -0.217213,-2.040783 -1.616886,-2.388859 -1.399674,-0.348076 -1.38756,2.21046 -2.547487,1.353248 -1.159927,-0.857212 1.289459,-1.596644 0.545867,-2.83249 -0.743591,-1.235845 -2.544184,0.581879 -2.758236,-0.844454 -0.214051,-1.426332 2.040784,-0.217213 2.388859,-1.616886 0.348076,-1.399674 -2.21046,-1.38756 -1.353248,-2.547487 0.857212,-1.159927 1.596645,1.289459 2.83249,0.545867 1.235845,-0.743591 -0.581878,-2.544184 0.844454,-2.758236 1.426333,-0.214052 0.217213,2.040784 1.616887,2.388859 1.399673,0.348076 1.38756,-2.21046 2.547486,-1.353248 1.159927,0.857212 -1.289459,1.596645 -0.545867,2.83249 0.743592,1.235845 2.544185,-0.581878 2.758236,0.844454 0.214052,1.426333 -2.040783,0.217213 -2.388859,1.616887 -0.348076,1.399673 2.21046,1.38756 1.353248,2.547486 -0.857212,1.159927 -1.596644,-1.289459 -2.83249,-0.545867 -1.235845,0.743592 0.581879,2.544185 -0.844454,2.758236 z"
                 inkscape:randomized="0"
                 inkscape:rounded="0.5"
                 inkscape:flatsided="false"
                 sodipodi:arg2="1.8145356"
                 sodipodi:arg1="1.4218365"
                 sodipodi:r2="3.2519081"
                 sodipodi:r1="5.6067376"
                 sodipodi:cy="83.266495"
                 sodipodi:cx="90.696007"
                 sodipodi:sides="8"
                 id="path7466"
                 style="fill:#c9e8ff;fill-opacity:1;stroke:#6f83bf;stroke-width:0.40000001;stroke-miterlimit:4;stroke-dasharray:none;stroke-opacity:1"
                 sodipodi:type="star" />
            </g>
            <circle
               style="fill:#22577e;fill-opacity:1;stroke:none;stroke-width:0.40000001;stroke-miterlimit:4;stroke-dasharray:none;stroke-opacity:1"
               id="circle7470"
               cx="90.696007"
               cy="83.266495"
               r="0.71174699" />
          </g>
          <g
             id="g7480">
            <g
               id="g7476">
              <path
                 transform="matrix(1.0156291,0.40185455,-0.40185455,1.0156291,33.295456,-41.170628)"
                 sodipodi:type="star"
                 style="fill:#c9e8ff;fill-opacity:1;stroke:#0e69c4;stroke-width:0.36621967;stroke-miterlimit:4;stroke-dasharray:none;stroke-opacity:1"
                 id="path7474"
                 sodipodi:sides="8"
                 sodipodi:cx="98.389923"
                 sodipodi:cy="82.159821"
                 sodipodi:r1="3.618037"
                 sodipodi:r2="2.0984616"
                 sodipodi:arg1="1.4218365"
                 sodipodi:arg2="1.8145356"
                 inkscape:flatsided="false"
                 inkscape:rounded="0.5"
                 inkscape:randomized="0"
                 d="M 98.926874,85.737791 C 98.00646,85.875919 98.786707,84.42087 97.883495,84.196257 96.980283,83.971643 96.9881,85.62267 96.239598,85.06951 c -0.748503,-0.55316 0.83209,-1.030318 0.352249,-1.82781 -0.479841,-0.797493 -1.641767,0.375486 -1.779895,-0.544928 -0.138128,-0.920415 1.316921,-0.140168 1.541535,-1.04338 0.224614,-0.903211 -1.426413,-0.895394 -0.873253,-1.643897 0.55316,-0.748503 1.030317,0.83209 1.82781,0.352249 0.797493,-0.479841 -0.375487,-1.641766 0.544928,-1.779894 0.920414,-0.138128 0.140168,1.316921 1.043379,1.541535 0.903212,0.224613 0.895395,-1.426414 1.643899,-0.873254 0.7485,0.553161 -0.832091,1.030318 -0.35225,1.827811 0.47984,0.797493 1.64177,-0.375487 1.77989,0.544927 0.13813,0.920415 -1.31692,0.140168 -1.54153,1.04338 -0.22461,0.903211 1.42641,0.895394 0.87325,1.643897 -0.55316,0.748503 -1.03031,-0.83209 -1.827808,-0.352249 -0.797493,0.479841 0.375487,1.641766 -0.544928,1.779894 z"
                 inkscape:transform-center-x="-0.094631167"
                 inkscape:transform-center-y="0.25340553" />
            </g>
            <circle
               r="0.43269137"
               cy="81.811714"
               cx="100.20683"
               id="circle7478"
               style="fill:#22577e;fill-opacity:1;stroke:none;stroke-width:0.40000001;stroke-miterlimit:4;stroke-dasharray:none;stroke-opacity:1" />
          </g>
        </g>
      </g>
    </g>
    <rect
       style="fill:none;stroke:#000000;stroke-width:0.5;stroke-miterlimit:4;stroke-dasharray:none"
       id="rect7398-7"
       width="100.16548"
       height="42.355827"
       x="40.685577"
       y="113.31362"
       rx="0.99999994"
       ry="0.99999988" />
  </g>
</svg>
